# AST/ASF file generated using VICON BodyLanguage
# -----------------------------------------------
:version 1.10
:name VICON
:units
  mass 1.0
  length 0.45
  angle deg
:documentation
   .ast/.asf automatically generated from VICON data using
   VICON BodyBuilder and BodyLanguage model FoxedUp or BRILLIANT.MOD
:root
   order TX TY TZ RX RY RZ
   axis XYZ
   position 0 0 0  
   orientation 0 0 0 
:bonedata
  begin
     id 1 
     name lhipjoint
     direction 0.671379 -0.66392 0.329334 
     length 2.38647 
     axis 0 0 0  XYZ
  end
  begin
     id 2 
     name lfemur
     direction 0.34202 -0.939693 0  
     length 6.48179  
     axis 0 0 20  XYZ
    dof rx ry rz
    limits (-160.0 20.0)
           (-70.0 70.0)
           (-60.0 70.0)
  end
  begin
     id 3 
     name ltibia
     direction 0.34202 -0.939693 0   
     length 6.86524   
     axis 0 0 20   XYZ
    dof rx
    limits (-10.0 170.0)
  end
  begin
     id 4 
     name lfoot
     direction 0.204886 -0.562919 0.800715   
     length 1.73031   
     axis -90 7.62852e-016 20   XYZ
    dof rx rz
    limits (-45.0 90.0)
           (-70.0 20.0)
  end
  begin
     id 5 
     name ltoes
     direction 1.53548e-011 -4.21841e-011 1   
     length 0.828161   
     axis -90 7.62852e-016 20   XYZ
    dof rx
    limits (-90.0 20.0)
  end
  begin
     id 6 
     name rhipjoint
     direction -0.662732 -0.670855 0.332775   
     length 2.3618  
     axis 0 0 0  XYZ 
  end
  begin
     id 7 
     name rfemur
     direction -0.34202 -0.939693 0   
     length 6.3025   
     axis 0 0 -20   XYZ
    dof rx ry rz
    limits (-160.0 20.0)
           (-70.0 70.0)
           (-70.0 60.0)
  end
  begin
     id 8 
     name rtibia
     direction -0.34202 -0.939693 0   
     length 6.8732   
     axis 0 0 -20   XYZ
    dof rx
    limits (-10.0 170.0)
 end
 begin
     id 9 
     name rfoot
     direction -0.173856 -0.477665 0.861168   
     length 1.54784  
     axis -90 -7.62852e-016 -20   XYZ
    dof rx rz
    limits (-45.0 90.0)
           (-20.0 70.0)
  end
  begin
     id 10 
     name rtoes
     direction -1.53562e-011 -4.21802e-011 1   
     length 0.759618   
     axis -90 -7.62852e-016 -20   XYZ
    dof rx
    limits (-90.0 20.0)
  end
  begin
     id 11 
     name lowerback
     direction -0.0278357 0.999497 -0.0151789   
     length 1.97203   
     axis 0 0 0   XYZ
    dof rx ry rz
    limits (-20.0 45.0)
           (-30.0 30.0)
           (-30.0 30.0)
  end
  begin
     id 12 
     name upperback
     direction -0.00360622 0.997542 0.0699804   
     length 1.94709   
     axis 0 0 0   XYZ
    dof rx ry rz
    limits (-20.0 45.0)
           (-30.0 30.0)
           (-30.0 30.0)
  end
  begin
     id 13 
     name thorax
     direction 0.00907706 0.997048 0.0762461   
     length 1.95722   
     axis 0 0 0   XYZ
    dof rx ry rz
    limits (-20.0 45.0)
           (-30.0 30.0)
           (-30.0 30.0)
  end
  begin
     id 14 
     name lowerneck
     direction -0.0481835 0.99872 -0.0153927   
     length 1.63078   
     axis 0 0 0   XYZ
    dof rx ry rz
    limits (-20.0 45.0)
           (-30.0 30.0)
           (-30.0 30.0)
  end
  begin
     id 15 
     name upperneck
     direction 0.0859716 0.979226 -0.183644   
     length 1.62591   
     axis 0 0 0   XYZ
    dof rx ry rz
    limits (-20.0 45.0)
           (-30.0 30.0)
           (-30.0 30.0)
  end
  begin
     id 16
     name head
     direction 0.0324821 0.997629 -0.0606773  
     length 1.64811  
     axis 0 0 0   XYZ
    dof rx ry rz
    limits (-20.0 45.0)
           (-30.0 30.0)
           (-30.0 30.0)
  end
  begin
     id 17 
     name lclavicle
     direction 0.939609 0.311019 0.142835  
     length 3.70647  
     axis 0 0 0   XYZ
    dof ry rz
    limits (-20.0 10.0)
           (0.0 20.0)
  end
  begin
     id 18 
     name lhumerus
     direction 1 -4.48963e-011 -1.59838e-027   
     length 4.59207   
     axis 180 -30 -90   XYZ
    dof rx ry rz
    limits (-60.0 90.0)
           (-90.0 90.0)
           (-90.0 90.0)
  end
  begin
     id 19
     name lradius
     direction 1 -4.48957e-011 -1.3483e-026   
     length 2.98109   
     axis 180 -30 -90   XYZ
    dof rx
    limits (-10.0 170.0)
  end
  begin
     id 20
     name lwrist
     direction 1 -4.48954e-011 -3.11579e-026   
     length 1.49055   
     axis 2.00652e-014 90 90   XYZ
    dof ry
    limits (-180.0 0.0)
 end
  begin
     id 21 
     name lhand
     direction 1 -4.4911e-011 -6.23158e-026   
     length 0.480203   
     axis 3.97628e-014 90 90   XYZ
    dof rx rz
    limits (-90.0 90.0)
           (-45.0 45.0)
  end
  begin
     id 22 
     name lfingers
     direction 1 -4.48893e-011 -1.24632e-025   
     length 0.387152   
     axis 7.95256e-014 90 90   XYZ
    dof rx
    limits (0.0 90.0)
  end
  begin
     id 23
     name lthumb
     direction 0.707107 -6.35013e-011 0.707107   
     length 0.555875   
     axis -90 45 2.85299e-015   XYZ
    dof rx rz
    limits (-45.0 45.0)
           (-45.0 45.0)
  end
  begin
     id 24 
     name rclavicle
     direction -0.950396 0.30392 0.0661859   
     length 3.70894  
     axis 0 0 0   XYZ 
    dof ry rz
    limits (-10.0 20.0)
           (-20.0 0.0)
  end
  begin
     id 25 
     name rhumerus
     direction -1 -4.48957e-011 -2.96677e-027  
     length 4.76508   
     axis 180 30 90   XYZ
    dof rx ry rz
    limits (-90.0 60.0)
           (-90.0 90.0)
           (-90.0 90.0)
  end
  begin
     id 26 
     name rradius
     direction -1 -4.48974e-011 -1.44501e-026   
     length 2.78902   
     axis 180 30 90   XYZ
    dof rx
    limits (-10.0 170.0)
  end
  begin
     id 27 
     name rwrist
     direction -1 -4.48978e-011 -3.11579e-026   
     length 1.39451   
     axis 2.00652e-014 -90 -90   XYZ
    dof ry
    limits (-180.0 0.0)
  end
  begin
     id 28
     name rhand
     direction -1 -4.48956e-011 -6.23158e-026   
     length 0.721303   
     axis 3.97628e-014 -90 -90   XYZ
    dof rx rz
    limits (-90.0 90.0)
           (-45.0 45.0)
  end
  begin
     id 29
     name rfingers
     direction -1 -4.4899e-011 -1.24632e-025   
     length 0.581533   
     axis 7.95256e-014 -90 -90   XYZ
    dof rx
    limits (0.0 90.0)
  end
  begin
     id 30
     name rthumb
     direction -0.707107 -6.34911e-011 0.707107   
     length 0.834968   
     axis -90 -45 -2.85299e-015   XYZ
    dof rx rz
    limits (-45.0 45.0)
           (-45.0 45.0)
  end
:hierarchy
  begin
    root lhipjoint rhipjoint lowerback
    lhipjoint lfemur
    lfemur ltibia
    ltibia lfoot
    lfoot ltoes
    rhipjoint rfemur
    rfemur rtibia
    rtibia rfoot
    rfoot rtoes
    lowerback upperback
    upperback thorax
    thorax lowerneck lclavicle rclavicle
    lowerneck upperneck
    upperneck head
    lclavicle lhumerus
    lhumerus lradius
    lradius lwrist
    lwrist lhand lthumb
    lhand lfingers
    rclavicle rhumerus
    rhumerus rradius
    rradius rwrist
    rwrist rhand rthumb
    rhand rfingers
  end

#!OML:ASF I:\salsa\salsa 7_09\Patient 1\Session 1\dancerfemale.ASF
:FULLY-SPECIFIED
:DEGREES
840
root 10.9699 15.9153 -5.73145 -896.268 -140.385 542.404
lowerback 4.65669 -0.948731 2.44839
upperback -6.91978 -1.47067 -3.90908
thorax -10.1753 -1.12097 -5.37974
lowerneck 3.48893 1.91346 -4.45604
upperneck 13.6132 1.11068 11.9651
head 3.31466 0.709755 4.42619
rclavicle 2.98177e-015 -1.59028e-014
rhumerus -52.4024 4.96243 -94.907
rradius 78.877
rwrist 2.4127
rhand 1.08069 446.697
rfingers 7.12502
rthumb 26.6251 58.549
lclavicle 2.98177e-015 -1.59028e-014
lhumerus -33.1668 53.7727 54.8358
lradius 50.1457
lwrist -34.5844
lhand -44.4497 47.7816
lfingers 7.12502
lthumb -17.254 77.0356
rfemur -1.74006 -8.78874 19.1651
rtibia 41.6499
rfoot -5.51184 -13.0223
rtoes -14.012
lfemur -27.3155 14.4143 -29.3325
ltibia 46.8033
lfoot -19.8704 18.2837
ltoes -11.7007
841
root 11.0455 15.9762 -5.96496 -894.597 -136.944 540.319
lowerback 4.78025 -1.12825 3.35846
upperback -6.8885 -1.57905 -3.41322
thorax -10.2425 -1.2199 -5.34249
lowerneck 3.13341 3.11102 -3.72015
upperneck 13.5703 2.78899 11.5422
head 3.24446 1.56626 4.1896
rclavicle 5.09883e-014 1.43125e-014
rhumerus -50.9435 6.95977 -94.7459
rradius 79.4889
rwrist 1.75797
rhand 1.37739 446.916
rfingers 7.12502
rthumb 26.909 58.8116
lclavicle 5.09883e-014 1.43125e-014
lhumerus -34.7573 54.641 51.7103
lradius 47.9276
lwrist -36.2284
lhand -43.8997 47.0885
lfingers 7.12502
lthumb -16.7246 76.3881
rfemur -0.233574 -7.72561 20.9563
rtibia 36.8409
rfoot -5.7632 -13.8903
rtoes -18.9179
lfemur -29.916 15.5316 -27.4243
ltibia 48.9353
lfoot -18.5711 19.9212
ltoes -9.72296
842
root 11.1194 16.0171 -6.22119 -892.634 -133.307 538.267
lowerback 5.04521 -1.01233 3.80601
upperback -6.96746 -1.34701 -3.09756
thorax -10.466 -1.13449 -5.28599
lowerneck 2.85349 4.05002 -2.72937
upperneck 13.3308 4.11435 11.1947
head 3.15418 2.25617 3.92689
rclavicle 2.87244e-014 1.90833e-014
rhumerus -49.5374 8.37738 -94.4274
rradius 80.2739
rwrist 1.30665
rhand 1.9482 447.4
rfingers 7.12502
rthumb 27.455 59.3809
lclavicle 2.87244e-014 1.90833e-014
lhumerus -35.5905 54.6074 49.3017
lradius 45.9267
lwrist -37.6751
lhand -43.4565 46.3902
lfingers 7.12502
lthumb -16.298 75.7253
rfemur 0.695485 -6.28802 22.4927
rtibia 32.4844
rfoot -8.08812 -13.6744
rtoes -24.2858
lfemur -33.019 17.0448 -25.6832
ltibia 51.4279
lfoot -16.6701 21.4862
ltoes -6.82623
843
root 11.2138 16.0353 -6.47678 -890.424 -129.734 536.357
lowerback 4.8424 -1.35872 3.97845
upperback -6.88596 -1.75169 -2.50531
thorax -10.2842 -1.30887 -4.68152
lowerneck 2.27484 5.50901 -2.79678
upperneck 13.0019 6.15497 10.9768
head 3.01507 3.26516 3.88926
rclavicle 3.77691e-015 3.49861e-014
rhumerus -47.6198 11.3426 -94.3331
rradius 81.0427
rwrist 1.0836
rhand 1.57772 447.975
rfingers 7.12502
rthumb 27.1007 59.9
lclavicle 3.77691e-015 3.49861e-014
lhumerus -37.736 54.931 45.9904
lradius 44.9431
lwrist -37.7792
lhand -42.9927 46.476
lfingers 7.12502
lthumb -15.8514 75.8471
rfemur 0.767494 -5.17965 23.464
rtibia 29.1787
rfoot -8.4075 -12.1597
rtoes -27.2391
lfemur -36.7987 19.3326 -24.4613
ltibia 54.3045
lfoot -14.2081 22.5793
ltoes -2.65845
844
root 11.3113 16.0482 -6.72471 -887.826 -126.063 534.158
lowerback 4.71508 -1.28879 4.23776
upperback -6.9544 -1.63025 -2.35876
thorax -10.2748 -1.26688 -4.68786
lowerneck 2.14846 6.54175 -1.64282
upperneck 12.2971 7.66871 10.2221
head 3.12952 4.00395 3.83122
rclavicle -2.84262e-014 -1.03368e-014
rhumerus -46.2791 12.4363 -94.2999
rradius 82.328
rwrist 1.2705
rhand 1.0874 448.88
rfingers 7.12502
rthumb 26.6315 60.7334
lclavicle -2.84262e-014 -1.03368e-014
lhumerus -38.6966 54.4445 43.4716
lradius 44.2834
lwrist -37.9314
lhand -42.5604 47.1381
lfingers 7.12502
lthumb -15.435 76.5418
rfemur -0.0519275 -4.43171 24.15
rtibia 27.3469
rfoot -9.54941 -9.36965
rtoes -28.7943
lfemur -40.6184 21.6426 -23.286
ltibia 57.2026
lfoot -12.0939 23.8097
ltoes 2.99597
845
root 11.4027 15.9963 -6.96453 -884.085 -122.069 530.886
lowerback 4.40887 -1.0165 4.46486
upperback -7.14451 -1.22998 -2.00426
thorax -10.2505 -1.08017 -4.48976
lowerneck 2.03847 7.52719 -0.640555
upperneck 12.0065 9.05618 9.64909
head 3.02791 4.71316 3.4487
rclavicle -7.7526e-015 1.59028e-014
rhumerus -44.839 14.2964 -94.0632
rradius 83.4874
rwrist 0.952909
rhand 1.12511 449.543
rfingers 7.12502
rthumb 26.6676 61.4011
lclavicle -7.7526e-015 1.59028e-014
lhumerus -39.9682 54.2429 40.6262
lradius 43.5896
lwrist -38.1427
lhand -42.4494 48.1741
lfingers 7.12502
lthumb -15.328 77.586
rfemur -1.66429 -2.94088 25.1673
rtibia 26.9513
rfoot -11.1303 -6.28784
rtoes -29.1689
lfemur -44.4476 24.153 -21.7631
ltibia 59.9817
lfoot -11.1164 24.8984
ltoes 7.84514
846
root 11.4911 15.9332 -7.19444 -879.963 -118.073 527
lowerback 4.36775 -0.795805 4.39249
upperback -7.26887 -0.905189 -1.53274
thorax -10.3103 -0.900673 -3.9823
lowerneck 1.97205 8.61658 -0.069409
upperneck 11.7088 10.5808 9.17172
head 2.9069 5.47389 3.18079
rclavicle 1.46107e-014 1.43125e-014
rhumerus -43.4596 16.5765 -93.6016
rradius 84.8374
rwrist 0.531598
rhand 1.49221 449.8
rfingers 7.12502
rthumb 27.0189 61.7124
lclavicle 1.46107e-014 1.43125e-014
lhumerus -41.7732 54.1509 37.3568
lradius 42.9084
lwrist -37.8352
lhand -42.1944 48.7929
lfingers 7.12502
lthumb -15.0824 78.2235
rfemur -3.23884 -2.38237 25.8308
rtibia 27.1898
rfoot -12.6394 -2.17653
rtoes -28.0733
lfemur -47.2265 26.525 -20.0192
ltibia 61.9936
lfoot -11.6026 25.3917
ltoes 10.4364
847
root 11.572 15.8883 -7.40684 -875.409 -114.123 522.519
lowerback 4.43813 -0.540243 4.2002
upperback -7.29995 -0.553609 -1.23318
thorax -10.3377 -0.703541 -3.59704
lowerneck 1.91179 9.67169 0.475015
upperneck 11.4132 12.0411 8.8533
head 2.79693 6.20569 2.97622
rclavicle -1.98785e-015 1.59028e-015
rhumerus -42.1746 18.7526 -93.1892
rradius 86.2886
rwrist 0.372453
rhand 1.28318 449.859
rfingers 7.12502
rthumb 26.8189 61.7408
lclavicle -1.98785e-015 1.59028e-015
lhumerus -43.6253 54.2421 33.8535
lradius 42.2167
lwrist -37.5081
lhand -41.4499 49.1127
lfingers 7.12502
lthumb -14.3652 78.5957
rfemur -4.61993 -2.45141 26.1802
rtibia 27.6635
rfoot -13.9029 2.23438
rtoes -26.3592
lfemur -48.6987 28.637 -18.1299
ltibia 62.9842
lfoot -12.612 24.6824
ltoes 8.83211
848
root 11.648 15.871 -7.58969 -870.231 -110.619 517.11
lowerback 4.79734 -0.390249 4.19819
upperback -7.21561 -0.317763 -1.02138
thorax -10.4328 -0.579132 -3.39949
lowerneck 1.5875 10.6995 0.923013
upperneck 11.3749 13.4274 8.67868
head 2.82393 6.91056 2.8731
rclavicle -1.73937e-014 9.54166e-015
rhumerus -40.9128 20.7872 -92.8157
rradius 87.3667
rwrist 0.31036
rhand 0.720577 629.753
rfingers 7.12502
rthumb 26.2804 62.047
lclavicle -1.73937e-014 9.54166e-015
lhumerus -45.7547 54.4544 30.0594
lradius 41.463
lwrist -37.3095
lhand -40.7925 49.7228
lfingers 7.12502
lthumb -13.7316 79.2497
rfemur -5.35367 -3.43745 26.4306
rtibia 27.7018
rfoot -14.608 6.79878
rtoes -24.8634
lfemur -48.84 30.7465 -16.1362
ltibia 62.75
lfoot -12.6376 22.6094
ltoes 2.87367
849
root 11.7155 15.8446 -7.7612 -862.927 -107.581 509.326
lowerback 5.30454 -0.298888 4.33135
upperback -7.06535 -0.126205 -0.687911
thorax -10.5509 -0.479065 -3.1429
lowerneck 1.08498 11.7431 1.27446
upperneck 11.6173 14.8029 8.5853
head 2.97613 7.61617 2.85037
rclavicle -1.68967e-014 -1.59028e-015
rhumerus -39.6673 22.3924 -92.4308
rradius 87.9419
rwrist 0.225919
rhand 0.580217 628.975
rfingers 7.12502
rthumb 26.146 62.805
lclavicle -1.68967e-014 -1.59028e-015
lhumerus -48.3972 54.6255 25.8885
lradius 40.6904
lwrist -37.1777
lhand -40.3658 50.251
lfingers 7.12502
lthumb -13.3204 79.8052
rfemur -5.53744 -4.94293 26.998
rtibia 27.311
rfoot -14.9028 11.3045
rtoes -22.9907
lfemur -48.011 32.6579 -13.5921
ltibia 61.6824
lfoot -11.6581 20.7091
ltoes -3.59622
